<svg height="464pt" viewBox="0 -52 464 464" width="464pt" xmlns="http://www.w3.org/2000/svg"><path d="m0 296h464v64h-464zm0 0" fill="#d3843d"/><path d="m416 264h-200l-24-32v-96l24-32h200zm0 0" fill="#dd3e46"/><path d="m416 136h32v96h-32zm0 0" fill="#87cee9"/><path d="m368 72h-128v-32l16-8h96l16 8zm0 0" fill="#bc2a38"/><path d="m280 0h48v32h-48zm0 0" fill="#ffd782"/><path d="m280 72h48v32h-48zm0 0" fill="#ffd782"/><g fill="#961729"><path d="m232 128h144v16h-144zm0 0"/><path d="m232 160h144v16h-144zm0 0"/><path d="m232 192h144v16h-144zm0 0"/><path d="m232 224h144v16h-144zm0 0"/></g><path d="m240 264h32v32h-32zm0 0" fill="#195c85"/><path d="m336 264h32v32h-32zm0 0" fill="#195c85"/><path d="m112 240h32v56h-32zm0 0" fill="#87cee9"/><path d="m144 240h-64l-16-16v-80l16-16h64zm0 0" fill="#bc2a38"/><path d="m112 72h32v56h-32zm0 0" fill="#87cee9"/><path d="m144 160h48v48h-48zm0 0" fill="#87cee9"/><path d="m16 168h48v32h-48zm0 0" fill="#87cee9"/><path d="m8 160h16v80h-16zm0 0" fill="#bc2a38"/><path d="m88 64h80v16h-80zm0 0" fill="#dd3e46"/><path d="m40 320h32v16h-32zm0 0" fill="#ffd782"/><path d="m96 320h16v16h-16zm0 0" fill="#ffd782"/><path d="m408 320h16v16h-16zm0 0" fill="#ffd782"/><path d="m104 152h16v16h-16zm0 0" fill="#dd3e46"/></svg>