<svg id="line_icons" height="512" viewBox="0 0 74 74" width="512" xmlns="http://www.w3.org/2000/svg" data-name="line icons"><path d="m5.046 63.438a3.129 3.129 0 0 1 -3.046-3.2v-10.409a3.129 3.129 0 0 1 3.046-3.2 3.128 3.128 0 0 1 3.045 3.2v10.409a3.129 3.129 0 0 1 -3.045 3.2zm0-14.808a1.132 1.132 0 0 0 -1.046 1.199v10.409a1.133 1.133 0 0 0 1.046 1.2 1.132 1.132 0 0 0 1.045-1.2v-10.409a1.131 1.131 0 0 0 -1.045-1.199z"/><path d="m50.049 72.161h-26.1a1 1 0 0 1 -.754-.342l-7.915-9.072a1 1 0 0 1 -.246-.658v-14.111a1 1 0 0 1 .246-.658l7.92-9.071a1 1 0 0 1 .754-.343h26.1a1 1 0 0 1 .754.343l7.912 9.071a1 1 0 0 1 .246.658v14.111a1 1 0 0 1 -.246.658l-7.92 9.072a1 1 0 0 1 -.751.342zm-25.644-2h25.195l7.371-8.447v-13.361l-7.371-8.447h-25.195l-7.371 8.447v13.361z"/><path d="m16.034 60.823h-8.943a1 1 0 0 1 -1-1v-9.579a1 1 0 0 1 1-1h8.943a1 1 0 0 1 1 1v9.579a1 1 0 0 1 -1 1zm-7.943-2h6.943v-7.579h-6.943z"/><path d="m66.909 60.823h-8.943a1 1 0 0 1 -1-1v-9.579a1 1 0 0 1 1-1h8.943a1 1 0 0 1 1 1v9.579a1 1 0 0 1 -1 1zm-7.943-2h6.943v-7.579h-6.943z"/><path d="m68.954 63.438a3.129 3.129 0 0 1 -3.045-3.2v-10.409a3.049 3.049 0 1 1 6.091 0v10.409a3.129 3.129 0 0 1 -3.046 3.2zm0-14.808a1.131 1.131 0 0 0 -1.045 1.2v10.408a1.055 1.055 0 1 0 2.091 0v-10.409a1.132 1.132 0 0 0 -1.046-1.199z"/><path d="m43.524 39.906h-13.048a1 1 0 0 1 -1-1v-4.106a1 1 0 0 1 1-1h13.048a1 1 0 0 1 1 1v4.107a1 1 0 0 1 -1 .999zm-12.048-2h11.048v-2.106h-11.048z"/><path d="m38.85 35.8h-3.7a1 1 0 0 1 -1-1v-5.49a1 1 0 1 1 2 0v4.49h1.7v-4.49a1 1 0 1 1 2 0v5.49a1 1 0 0 1 -1 1z"/><path d="m37 30.417a15.042 15.042 0 1 1 15.042-15.042 15.059 15.059 0 0 1 -15.042 15.042zm0-28.084a13.042 13.042 0 1 0 13.042 13.042 13.057 13.057 0 0 0 -13.042-13.042z"/><path d="m33.3 19.6a1 1 0 0 1 -.658-1.752l3.358-2.927v-6.983a1 1 0 0 1 2 0v7.437a1 1 0 0 1 -.342.753l-3.7 3.229a1 1 0 0 1 -.658.243z"/><path d="m37 5.69a1.007 1.007 0 0 1 -1-1 1.028 1.028 0 0 1 .29-.71 1.047 1.047 0 0 1 1.42 0 1.033 1.033 0 0 1 .29.71 1.007 1.007 0 0 1 -1 1z"/><path d="m26.31 16.38a1.225 1.225 0 0 1 -.19-.02c-.07-.02-.13-.04-.19-.06s-.12-.06-.17-.09a.645.645 0 0 1 -.151-.13.981.981 0 0 1 0-1.41.645.645 0 0 1 .151-.13c.05-.03.11-.06.17-.09s.12-.04.19-.06a1.275 1.275 0 0 1 .39 0l.179.06.181.09a1.738 1.738 0 0 1 .15.13.973.973 0 0 1 .29.71.984.984 0 0 1 -.29.7 1.738 1.738 0 0 1 -.15.13l-.181.09-.179.06a1.369 1.369 0 0 1 -.2.02z"/><path d="m37 27.06a1 1 0 0 1 -.71-.29.988.988 0 0 1 -.21-.32 1.087 1.087 0 0 1 -.08-.39 1 1 0 0 1 1.189-.98.609.609 0 0 1 .191.06.947.947 0 0 1 .17.09 1.057 1.057 0 0 1 .16.13 1.009 1.009 0 0 1 .29.7 1.087 1.087 0 0 1 -.08.39.988.988 0 0 1 -.21.32.627.627 0 0 1 -.16.12.986.986 0 0 1 -.17.1 1.066 1.066 0 0 1 -.191.05.606.606 0 0 1 -.189.02z"/><path d="m47.689 16.38a1.021 1.021 0 0 1 -.71-.3 1 1 0 0 1 0-1.41 1.036 1.036 0 0 1 1.411 0 .981.981 0 0 1 .3.71.993.993 0 0 1 -.3.7.639.639 0 0 1 -.15.13c-.051.03-.11.06-.171.09s-.119.04-.189.06a1.238 1.238 0 0 1 -.191.02z"/></svg>