<svg height="512pt" viewBox="-51 0 512 512" width="512pt" xmlns="http://www.w3.org/2000/svg"><path d="m64.472656 506.519531 59.574219-220.519531-70.785156-5.679688-24.226563 223.46875c-.476562 4.382813 2.957032 8.210938 7.371094 8.210938h20.910156c3.347656 0 6.28125-2.246094 7.15625-5.480469zm0 0" fill="#537983"/><path d="m349.097656 506.519531-59.570312-220.519531 70.78125-5.679688 24.226562 223.46875c.476563 4.382813-2.957031 8.210938-7.367187 8.210938h-20.910157c-3.351562 0-6.285156-2.246094-7.160156-5.480469zm0 0" fill="#537983"/><path d="m223.757812 478.5625h-36.683593c-8.839844 0-16.011719-7.167969-16.011719-16.011719v-49.945312h68.707031v49.945312c0 8.84375-7.167969 16.011719-16.011719 16.011719zm0 0" fill="#deecf1"/><path d="m25.183594 35.703125v283.519531c0 9.289063 4.082031 18.109375 11.164062 24.125l134.738282 104.527344h68.707031l134.699219-104.527344c7.078124-6.015625 11.160156-14.835937 11.160156-24.125v-283.519531c0-19.71875-15.984375-35.703125-35.703125-35.703125h-289.0625c-19.714844 0-35.703125 15.984375-35.703125 35.703125zm0 0" fill="#deecf1"/><path d="m349.949219 0h-21.292969c13.980469 6.175781 25.125 20.753906 25.125 35.703125v283.519531c0 9.289063-4.082031 18.109375-11.160156 24.125l-20.835938 16.167969-113.863281 88.359375h31.871094l134.699219-104.527344c7.078124-6.011718 11.160156-14.832031 11.160156-24.121094v-283.523437c0-19.71875-15.988282-35.703125-35.703125-35.703125zm0 0" fill="#a8d3d8"/><path d="m156.96875 192.011719c0-.164063-.015625-.320313-.023438-.480469v-66.046875c.007813-.160156.023438-.316406.023438-.480469 0-.160156-.015625-.320312-.023438-.476562v-65.894532c0-4.269531-3.460937-7.730468-7.730468-7.730468-4.273438 0-7.734375 3.460937-7.734375 7.730468v58.640626h-65.859375v-58.640626c0-4.269531-3.464844-7.730468-7.734375-7.730468s-7.730469 3.460937-7.730469 7.730468v245.816407c0 4.273437 3.460938 7.734375 7.730469 7.734375s7.734375-3.460938 7.734375-7.734375v-37.703125h65.859375v37.703125c0 4.273437 3.460937 7.734375 7.734375 7.734375 4.269531 0 7.730468-3.460938 7.730468-7.734375v-44.953125c.007813-.160156.023438-.316406.023438-.480469 0-.160156-.015625-.320313-.023438-.480469v-66.046875c.007813-.15625.023438-.316406.023438-.476562zm-15.488281-59.273438v51.542969h-65.859375v-51.542969zm-65.859375 118.546875v-51.542968h65.859375v51.542968zm0 0" fill="#ff9838"/><path d="m0 51.667969c0 9.257812 7.507812 16.761719 16.765625 16.761719h377.304687c9.261719 0 16.765626-7.503907 16.765626-16.761719 0-9.261719-7.507813-16.765625-16.765626-16.765625h-377.304687c-9.261719 0-16.765625 7.507812-16.765625 16.765625zm0 0" fill="#8ebac5"/><path d="m207.921875 447.875h-.023437v30.6875h15.859374c8.84375 0 16.011719-7.167969 16.011719-16.011719v-14.675781zm0 0" fill="#a8d3d8"/><path d="m36.347656 343.347656 134.738282 104.527344h68.707031l134.699219-104.527344zm0 0" fill="#8ebac5"/><path d="m239.792969 447.875 134.699219-104.527344h-31.871094l-20.835938 16.167969-113.863281 88.359375zm0 0" fill="#7ca1b1"/></svg>